<svg aria-hidden="true" style="position: absolute; width: 0; height: 0; overflow: hidden;" version="1.1" xmlns="http://www.w3.org/2000/svg" xmlns:xlink="http://www.w3.org/1999/xlink">
<defs>
<symbol id="icon-analytics" viewBox="0 0 32 32">
<path fill="#fff" style="fill: var(--color1, #fff)" d="M31.333 30.667h-30.667c-0.368 0-0.667 0.299-0.667 0.667s0.299 0.667 0.667 0.667h30.667c0.368 0 0.667-0.299 0.667-0.667s-0.299-0.667-0.667-0.667z"></path>
<path fill="#fff" style="fill: var(--color1, #fff)" d="M6 22.667h-4c-0.368 0-0.667 0.299-0.667 0.667v8c0 0.368 0.299 0.667 0.667 0.667h4c0.368 0 0.667-0.299 0.667-0.667v-8c0-0.368-0.299-0.667-0.667-0.667zM5.333 30.667h-2.667v-6.667h2.667v6.667h-0z"></path>
<path fill="#fff" style="fill: var(--color1, #fff)" d="M14 16h-4c-0.368 0-0.667 0.299-0.667 0.667v14.667c0 0.368 0.299 0.667 0.667 0.667h4c0.368 0 0.667-0.299 0.667-0.667v-14.667c0-0.368-0.299-0.667-0.667-0.667zM13.333 30.667h-2.667v-13.333h2.667v13.333z"></path>
<path fill="#fff" style="fill: var(--color1, #fff)" d="M22 18.667h-4c-0.368 0-0.667 0.299-0.667 0.667v12c0 0.368 0.299 0.667 0.667 0.667h4c0.368 0 0.667-0.299 0.667-0.667v-12c0-0.368-0.299-0.667-0.667-0.667zM21.333 30.667h-2.667v-10.667h2.667v10.667z"></path>
<path fill="#fff" style="fill: var(--color1, #fff)" d="M30 10.667h-4c-0.368 0-0.667 0.299-0.667 0.667v20c0 0.368 0.299 0.667 0.667 0.667h4c0.368 0 0.667-0.299 0.667-0.667v-20c0-0.368-0.299-0.667-0.667-0.667zM29.333 30.667h-2.667v-18.667h2.667v18.667z"></path>
<path fill="#fff" style="fill: var(--color1, #fff)" d="M4 12c-1.471 0-2.667 1.196-2.667 2.667s1.196 2.667 2.667 2.667 2.667-1.196 2.667-2.667c0-1.471-1.196-2.667-2.667-2.667zM4 16c-0.736 0-1.333-0.599-1.333-1.333s0.597-1.333 1.333-1.333 1.333 0.599 1.333 1.333c0 0.735-0.597 1.333-1.333 1.333z"></path>
<path fill="#fff" style="fill: var(--color1, #fff)" d="M12 5.333c-1.471 0-2.667 1.196-2.667 2.667s1.196 2.667 2.667 2.667c1.471 0 2.667-1.196 2.667-2.667s-1.196-2.667-2.667-2.667zM12 9.333c-0.736 0-1.333-0.599-1.333-1.333s0.597-1.333 1.333-1.333 1.333 0.599 1.333 1.333c0 0.735-0.597 1.333-1.333 1.333z"></path>
<path fill="#fff" style="fill: var(--color1, #fff)" d="M20 8c-1.471 0-2.667 1.196-2.667 2.667s1.196 2.667 2.667 2.667c1.471 0 2.667-1.196 2.667-2.667s-1.196-2.667-2.667-2.667zM20 12c-0.736 0-1.333-0.599-1.333-1.333s0.597-1.333 1.333-1.333 1.333 0.599 1.333 1.333c0 0.735-0.597 1.333-1.333 1.333z"></path>
<path fill="#fff" style="fill: var(--color1, #fff)" d="M28 0c-1.471 0-2.667 1.196-2.667 2.667s1.196 2.667 2.667 2.667c1.471 0 2.667-1.196 2.667-2.667s-1.196-2.667-2.667-2.667zM28 4c-0.736 0-1.333-0.599-1.333-1.333s0.597-1.333 1.333-1.333 1.333 0.599 1.333 1.333c0 0.735-0.597 1.333-1.333 1.333z"></path>
<path fill="#fff" style="fill: var(--color1, #fff)" d="M27.059 3.608c-0.26-0.26-0.683-0.26-0.943 0l-5.173 5.173c-0.26 0.26-0.26 0.683 0 0.943 0.131 0.129 0.301 0.195 0.472 0.195 0.169 0 0.34-0.064 0.471-0.195l5.173-5.173c0.26-0.26 0.26-0.683 0-0.943z"></path>
<path fill="#fff" style="fill: var(--color1, #fff)" d="M18.388 9.128l-4.283-1.221c-0.359-0.104-0.723 0.104-0.823 0.459-0.101 0.355 0.104 0.723 0.457 0.824l4.283 1.221c0.061 0.017 0.123 0.025 0.183 0.025 0.291 0 0.557-0.191 0.641-0.484 0.101-0.353-0.104-0.723-0.459-0.824z"></path>
<path fill="#fff" style="fill: var(--color1, #fff)" d="M10.96 8.831c-0.229-0.288-0.648-0.335-0.936-0.107l-5.027 4.008c-0.288 0.231-0.336 0.649-0.105 0.937 0.132 0.165 0.327 0.251 0.521 0.251 0.145 0 0.292-0.048 0.415-0.144l5.027-4.008c0.288-0.231 0.336-0.649 0.105-0.937z"></path>
</symbol>
<symbol id="icon-close" viewBox="0 0 32 32">
<path d="M23.507 24.675l-7.511-7.511-7.317 7.317-1.207-1.207 7.317-7.317-7.473-7.473 1.129-1.129 7.472 7.472 7.356-7.356 1.207 1.207-7.356 7.356 7.511 7.511-1.129 1.129z"></path>
</symbol>
</defs>
</svg>
