<svg width="603" height="569" viewBox="0 0 603 569" fill="none" xmlns="http://www.w3.org/2000/svg">
<path fill-rule="evenodd" clip-rule="evenodd" d="M387.722 0C268.828 0 172.445 96.3832 172.445 215.278V223.24C172.445 226.513 172.518 229.769 172.662 233.006C173.056 241.817 165.689 249.287 156.869 249.287C70.2327 249.287 0 319.519 0 406.156V411.958C0 498.594 70.2327 568.827 156.869 568.827C225.365 568.827 283.608 524.926 304.995 463.726C311.535 445.011 331.669 432.096 351.211 435.434C363.078 437.462 375.277 438.518 387.722 438.518C506.617 438.518 603 342.135 603 223.24V215.278C603 96.3831 506.617 0 387.722 0Z" fill="white"/>
</svg>
